<?xml version="1.0" encoding="utf-8"?>
<!-- Generator: Adobe Illustrator 20.1.0, SVG Export Plug-In . SVG Version: 6.00 Build 0)  -->
<svg version="1.1" id="Layer_1" xmlns="http://www.w3.org/2000/svg" xmlns:xlink="http://www.w3.org/1999/xlink" x="0px" y="0px"
	 viewBox="0 0 268.1 192" style="enable-background:new 0 0 268.1 192;" xml:space="preserve">
<style type="text/css">
	.st0{fill:#249C9F;}
	.st1{fill:#89BE4C;}
</style>
<g>
	<path class="st0" d="M261.3,53.7c-2-8-6.7-16.4-14.2-25.1C234.5,16.1,220.7,10,205.9,10h-4.3c-14.8,0-28.7,6.3-41.5,18.9
		C147.4,16.3,133.6,10,118.6,10h-4.3c-12.4,0-24.6,4.6-36.6,14.1C63.9,37.1,57,51.4,57,67.2v38.3l0,0V125c0,7.8-1.3,14.1-4.1,18.2
		c-6.2,8.9-13.7,13.8-22.6,13.8H13.7c-0.2,0-0.7-0.5-0.7-0.2v30.7c0,0.3,0.3,0.5,0.7,0.5h17.2c13.7,0,26.9-5.3,39-15.9
		C82.4,159.5,89,145.7,89,130.8v-25.3l0,0V74.8c0-8.9,0.9-15.3,3.1-18.9C98.3,46.1,105.8,41,115,41h1l0.5-0.2c0,0.2,0.1,0.2,0.2,0.2
		h1.2c3.3,0,7.5,1.2,11.6,3.1c10,6,15.5,14.3,15.5,24.4v119.1c0,0.3-0.7,0.4-0.4,0.4h30.8c0.3,0,0.5-0.1,0.5-0.4v-117
		c0-5.4,1.1-10.5,3.2-14.9c6.4-9.6,14-14.7,22.8-14.7h1.4l0.5-0.2c0,0.2,0.1,0.2,0.2,0.2h1.2c1.8,0,4.2,0.6,6.7,1.4
		c13.1,5.1,19.9,14.4,19.9,27.3v117.9c0,0.3-0.3,0.4,0.1,0.4h30.4c0.3,0,0.5-0.1,0.5-0.4V65.7C263,62.6,262.4,58.6,261.3,53.7z"/>
	<g>
		<path class="st1" d="M13.9,41h42.5c3.8-8,9.3-15.1,16.6-22.1l0.3-0.1c4.6-3.7,9.3-6.8,14-8.8H13.9c-0.2,0-0.9-0.1-0.9,0.2v30.4
			C13,41,13.6,41,13.9,41z"/>
	</g>
</g>
</svg>
